<svg xmlns="http://www.w3.org/2000/svg" viewBox="0 0 163.2 163.2" width="163.2" height="163.2" class="gp"><defs><marker id="arrow" viewBox="0 0 10 10" refX="9" refY="5" markerWidth="7" markerHeight="7" orient="auto-start-reverse"><path d="M0,0 L10,5 L0,10 z" class="arrowhead"/></marker></defs><style>
.gp { background:#ffffff; font-family:ui-monospace,Menlo,Consolas,monospace; }
.gp .min { stroke:#dcebf6; stroke-width:1; }
.gp .maj { stroke:#bcd6ec; stroke-width:1; }
.gp .axis { stroke:#7f97ad; stroke-width:1.4; }
.gp .origin { fill:#7f97ad; }
.gp .latt { fill:#c2d2e0; }
.gp .dot { fill:#33424f; }
.gp .mark { fill:#2b5d86; }
.gp .tip { fill:#c0392b; }
.gp .vec { stroke:#2b5d86; stroke-width:2; fill:none; }
.gp .vec2 { stroke:#c0392b; stroke-width:2; stroke-dasharray:4 3; fill:none; }
.gp .edge { stroke:#33424f; stroke-width:1.6; }
.gp .cell { fill:rgba(43,93,134,0.12); stroke:#2b5d86; stroke-width:1.6; }
.gp .cell2 { fill:rgba(192,57,43,0.10); stroke:#c0392b; stroke-width:1.4; }
.gp .ghost { fill:none; stroke:#9fb3c6; stroke-width:1.2; stroke-dasharray:4 3; }
.gp .path { stroke:#c0392b; stroke-width:1.8; fill:none; }
.gp .curve { stroke:#2b5d86; stroke-width:1.8; fill:none; }
.gp .diag { stroke:#7f97ad; stroke-width:1.4; fill:none; stroke-dasharray:5 3; }
.gp .arrowhead { fill:#2b5d86; }
.gp .label { fill:#33424f; font-size:11px; }
.gp .label.r { fill:#c0392b; }
.gp .label.b { fill:#2b5d86; }
</style><line x1="13.6" y1="13.6" x2="13.6" y2="149.6" class="min"/><line x1="47.6" y1="13.6" x2="47.6" y2="149.6" class="min"/><line x1="81.6" y1="13.6" x2="81.6" y2="149.6" class="maj"/><line x1="115.6" y1="13.6" x2="115.6" y2="149.6" class="min"/><line x1="149.6" y1="13.6" x2="149.6" y2="149.6" class="min"/><line x1="13.6" y1="149.6" x2="149.6" y2="149.6" class="min"/><line x1="13.6" y1="115.6" x2="149.6" y2="115.6" class="min"/><line x1="13.6" y1="81.6" x2="149.6" y2="81.6" class="maj"/><line x1="13.6" y1="47.6" x2="149.6" y2="47.6" class="min"/><line x1="13.6" y1="13.6" x2="149.6" y2="13.6" class="min"/><line x1="13.6" y1="81.6" x2="149.6" y2="81.6" class="axis"/><line x1="81.6" y1="13.6" x2="81.6" y2="149.6" class="axis"/><circle cx="81.6" cy="81.6" r="2.6" class="origin"/><circle cx="47.6" cy="115.6" r="2" class="latt"/><circle cx="47.6" cy="81.6" r="2" class="latt"/><circle cx="47.6" cy="47.6" r="2" class="latt"/><circle cx="81.6" cy="115.6" r="2" class="latt"/><circle cx="81.6" cy="81.6" r="2" class="latt"/><circle cx="81.6" cy="47.6" r="2" class="latt"/><circle cx="115.6" cy="115.6" r="2" class="latt"/><circle cx="115.6" cy="81.6" r="2" class="latt"/><circle cx="115.6" cy="47.6" r="2" class="latt"/><circle cx="115.6" cy="81.6" r="2" class="mark"/><circle cx="81.6" cy="47.6" r="2" class="mark"/><circle cx="47.6" cy="81.6" r="2" class="mark"/><circle cx="81.6" cy="115.6" r="2" class="mark"/><g><line x1="81.6" y1="81.6" x2="115.6" y2="81.6" class="vec" marker-end="url(#arrow)"/><circle cx="115.6" cy="81.6" r="3.4" class="tip"/><animateTransform attributeName="transform" type="rotate" from="0 81.6 81.6" to="360 81.6 81.6" dur="4.0s" repeatCount="indefinite"/></g></svg>